<?xml version="1.0" encoding="utf-8"?>
<!DOCTYPE svg PUBLIC "-//W3C//DTD SVG 1.1//EN" "http://www.w3.org/Graphics/SVG/1.1/DTD/svg11.dtd">
<svg version="1.1" id="Layer_1" xmlns="http://www.w3.org/2000/svg" xmlns:xlink="http://www.w3.org/1999/xlink" x="0px" y="0px" width="120px" height="120px" viewBox="0 0 120 120" style="enable-background:new 0 0 120 120;" xml:space="preserve">
<g>
	<path d="M110,57.033v14.565l1.862-0.678c0.753-0.273,1.354-0.825,1.693-1.551c0.338-0.727,0.374-1.541,0.1-2.294L110,57.033z"/>
	<path d="M6.345,52.925L10,62.969V48.402L8.138,49.08C6.583,49.646,5.779,51.371,6.345,52.925z"/>
	<path d="M118.536,15.231c-1.06-1.06-2.419-1.601-3.715-1.601c-1.093,0-2.141,0.385-2.925,1.169l-12.659,12.66l-2.682-7.368
		c-0.43-1.181-1.563-1.975-2.819-1.975c-0.348,0-0.693,0.062-1.025,0.183L60.559,30h36.135l-2,2H25.305L8.104,14.799
		C7.319,14.015,6.272,13.63,5.18,13.63c-1.296,0-2.656,0.542-3.715,1.601c-1.953,1.953-2.146,4.925-0.432,6.639l11.49,11.489
		C12.204,33.833,12,34.388,12,35v50c0,1.654,1.346,3,3,3h5.494l-4.243,11.658c-0.944,2.595,0.394,5.464,2.988,6.408
		c0.564,0.205,1.143,0.303,1.71,0.303c2.042,0,3.959-1.26,4.699-3.291l0.441-1.212c0.059,0.004,0.115,0.019,0.175,0.019
		c0.348,0,0.693-0.062,1.025-0.182L59.443,90H30.409l0.728-2h57.727l5.488,15.078c0.739,2.031,2.656,3.292,4.698,3.292
		c0.568,0,1.146-0.098,1.711-0.304c2.595-0.944,3.933-3.813,2.988-6.408L99.506,88H105c1.654,0,3-1.346,3-3V35
		c0-0.613-0.203-1.168-0.521-1.642l11.488-11.489C120.682,20.156,120.489,17.184,118.536,15.231z M117.553,20.456L85.639,52.371
		l-0.901,0.901l0.437,1.197l16.695,45.874c0.566,1.555-0.238,3.279-1.793,3.846c-0.333,0.121-0.678,0.183-1.026,0.183
		c-1.256,0-2.389-0.795-2.819-1.976L81.129,60.903l-1.073-2.95l-2.22,2.22L62.122,75.888L61.69,76.32
		c-0.465,0.465-1.077,0.563-1.508,0.564h-0.078l-0.059,0.004l-0.051,0.002l-0.059-0.002l-0.059-0.004h-0.059
		c-0.431-0.001-1.043-0.1-1.508-0.565l-0.336-0.336l-0.001-0.001l-0.097-0.097L42.164,60.173l-2.22-2.22l-1.074,2.95L23.77,102.394
		c-0.43,1.182-1.563,1.976-2.819,1.976c-0.349,0-0.694-0.062-1.026-0.182c-1.554-0.566-2.359-2.291-1.793-3.846L34.828,54.47
		l0.436-1.197l-0.901-0.901L2.447,20.456c-0.932-0.932-0.738-2.641,0.432-3.811C3.524,16,4.363,15.63,5.18,15.63
		c0.422,0,1.028,0.101,1.51,0.583l51.896,51.896L60,69.523l1.414-1.414l51.896-51.896c0.482-0.482,1.088-0.583,1.511-0.583
		c0.816,0,1.655,0.37,2.301,1.015c0.601,0.601,0.96,1.356,1.01,2.125C118.174,19.441,117.969,20.04,117.553,20.456z"/>
</g>
</svg>
